<svg width="1630" height="348" viewBox="0 0 1630 348" fill="none" xmlns="http://www.w3.org/2000/svg">
<g clip-path="url(#clip0)">
<g filter="url(#filter0_d)">
<path d="M408.225 253V180.999H433.178L476.847 253H531.692L482.045 173.201C505.699 161.764 520.515 137.59 520.515 106.139C520.515 59.6109 489.323 32.0581 445.135 32.0581H361.957V253H408.225ZM445.135 78.066C461.251 78.066 473.987 89.763 473.987 106.139C473.987 122.254 461.511 134.731 447.474 134.731H408.225V78.066H445.135ZM638.56 205.173C634.921 208.552 626.863 211.151 616.726 211.151C603.469 211.151 592.812 203.353 588.133 190.876H692.106C692.886 185.938 693.146 180.219 693.146 174.761C693.146 129.273 660.134 94.9616 616.206 94.9616C572.278 94.9616 539.006 129.273 539.006 174.501C539.006 221.288 571.238 254.3 616.986 254.3C648.957 254.3 676.77 234.285 687.427 205.173H638.56ZM588.133 157.865C592.812 145.908 602.95 138.37 616.206 138.37C629.463 138.37 639.34 145.648 644.019 157.865H588.133ZM825.957 97.041V111.597C820.238 102.76 802.563 95.4814 785.667 95.4814C739.659 95.4814 711.327 127.193 711.327 175.28C711.327 223.108 739.659 254.82 785.667 254.82C802.563 254.82 819.978 247.801 825.957 238.444V317.983H872.224V97.041H825.957ZM757.335 175.28C757.335 154.746 770.851 141.489 791.906 141.489C811.92 141.489 825.957 154.746 825.957 175.021C825.957 194.255 811.66 208.552 791.906 208.552C770.851 208.552 757.335 195.295 757.335 175.28ZM939.957 175.28V97.041H893.69V175.28C893.69 223.108 918.383 254.82 958.153 254.82C972.709 254.82 988.305 248.061 993.763 238.444V253H1039.77V97.041H993.763V175.021C993.763 194.515 982.326 208.552 966.73 208.552C950.355 208.552 939.957 195.295 939.957 175.28ZM1159.25 205.173C1155.61 208.552 1147.55 211.151 1137.41 211.151C1124.16 211.151 1113.5 203.353 1108.82 190.876H1212.79C1213.57 185.938 1213.83 180.219 1213.83 174.761C1213.83 129.273 1180.82 94.9616 1136.89 94.9616C1092.97 94.9616 1059.69 129.273 1059.69 174.501C1059.69 221.288 1091.93 254.3 1137.67 254.3C1169.65 254.3 1197.46 234.285 1208.12 205.173H1159.25ZM1108.82 157.865C1113.5 145.908 1123.64 138.37 1136.89 138.37C1150.15 138.37 1160.03 145.648 1164.71 157.865H1108.82ZM1230.75 198.154C1230.49 235.065 1262.46 254.56 1291.83 254.56C1326.66 254.56 1352.92 233.765 1352.92 206.472C1352.92 169.302 1324.32 161.244 1301.97 155.786C1288.45 152.666 1280.92 150.587 1280.92 143.829C1280.92 137.33 1285.85 133.951 1292.61 133.951C1301.45 133.951 1308.47 141.229 1307.95 149.807H1349.02C1349.54 117.576 1326.4 95.2215 1292.87 95.2215C1260.12 95.2215 1234.91 112.637 1234.91 144.609C1234.91 180.739 1264.54 185.418 1284.82 191.916C1295.73 195.815 1306.65 198.674 1306.65 207.252C1306.65 212.711 1301.97 215.57 1293.13 215.83C1282.74 215.83 1274.16 207.772 1274.42 198.154H1230.75ZM1397.8 64.0297L1386.88 97.041H1367.39V140.45H1386.88V196.335C1386.88 237.144 1404.3 253 1446.15 253H1458.36V207.512H1450.57C1439.13 207.512 1432.89 202.313 1432.89 193.736V140.45H1458.36V97.041H1432.89V64.0297H1397.8ZM1476.34 198.154C1476.08 235.065 1508.05 254.56 1537.42 254.56C1572.25 254.56 1598.51 233.765 1598.51 206.472C1598.51 169.302 1569.91 161.244 1547.56 155.786C1534.04 152.666 1526.51 150.587 1526.51 143.829C1526.51 137.33 1531.44 133.951 1538.2 133.951C1547.04 133.951 1554.06 141.229 1553.54 149.807H1594.61C1595.13 117.576 1571.99 95.2215 1538.46 95.2215C1505.71 95.2215 1480.5 112.637 1480.5 144.609C1480.5 180.739 1510.13 185.418 1530.4 191.916C1541.32 195.815 1552.24 198.674 1552.24 207.252C1552.24 212.711 1547.56 215.57 1538.72 215.83C1528.33 215.83 1519.75 207.772 1520.01 198.154H1476.34Z" fill="#FDFAFF"/>
<g clip-path="url(#clip1)">
<rect x="14" y="9.86203" width="264" height="264" rx="62.3163" fill="white"/>
<rect x="5.75009" y="4.49945" width="280.5" height="274.725" fill="url(#paint0_radial)"/>
<rect x="5.75009" y="4.49945" width="280.5" height="274.725" fill="url(#paint1_radial)"/>
<rect x="5.75009" y="4.49945" width="280.5" height="274.725" fill="url(#paint2_radial)"/>
<rect x="5.75009" y="4.49945" width="280.5" height="274.725" fill="url(#paint3_radial)"/>
<g filter="url(#filter1_d)">
<path d="M162.844 139.176L91.8124 115.02V75.0648L206.586 122.071V156.804L91.8124 203.81V163.855L162.844 139.176Z" fill="white"/>
</g>
</g>
</g>
</g>
<defs>
<filter id="filter0_d" x="2.96552" y="9.86203" width="1606.58" height="330.19" filterUnits="userSpaceOnUse" color-interpolation-filters="sRGB">
<feFlood flood-opacity="0" result="BackgroundImageFix"/>
<feColorMatrix in="SourceAlpha" type="matrix" values="0 0 0 0 0 0 0 0 0 0 0 0 0 0 0 0 0 0 127 0"/>
<feOffset dy="11.0345"/>
<feGaussianBlur stdDeviation="5.51724"/>
<feColorMatrix type="matrix" values="0 0 0 0 1 0 0 0 0 1 0 0 0 0 1 0 0 0 0.09 0"/>
<feBlend mode="normal" in2="BackgroundImageFix" result="effect1_dropShadow"/>
<feBlend mode="normal" in="SourceGraphic" in2="effect1_dropShadow" result="shape"/>
</filter>
<filter id="filter1_d" x="49.7374" y="33.8148" width="198.924" height="212.895" filterUnits="userSpaceOnUse" color-interpolation-filters="sRGB">
<feFlood flood-opacity="0" result="BackgroundImageFix"/>
<feColorMatrix in="SourceAlpha" type="matrix" values="0 0 0 0 0 0 0 0 0 0 0 0 0 0 0 0 0 0 127 0"/>
<feOffset dy="0.825"/>
<feGaussianBlur stdDeviation="21.0375"/>
<feColorMatrix type="matrix" values="0 0 0 0 0.377167 0 0 0 0 0 0 0 0 0 0.608333 0 0 0 0.13 0"/>
<feBlend mode="normal" in2="BackgroundImageFix" result="effect1_dropShadow"/>
<feBlend mode="normal" in="SourceGraphic" in2="effect1_dropShadow" result="shape"/>
</filter>
<radialGradient id="paint0_radial" cx="0" cy="0" r="1" gradientUnits="userSpaceOnUse" gradientTransform="translate(15.547 274.068) rotate(-42.5978) scale(748.092 763.817)">
<stop stop-color="#5200FF"/>
<stop offset="1" stop-color="#7737FF" stop-opacity="0"/>
</radialGradient>
<radialGradient id="paint1_radial" cx="0" cy="0" r="1" gradientUnits="userSpaceOnUse" gradientTransform="translate(20.2907 20.6901) rotate(45.1332) scale(407.845 416.418)">
<stop stop-color="#001AFF"/>
<stop offset="1" stop-color="white" stop-opacity="0"/>
</radialGradient>
<radialGradient id="paint2_radial" cx="0" cy="0" r="1" gradientUnits="userSpaceOnUse" gradientTransform="translate(279.96 -12.7224) rotate(133.489) scale(600.271 612.889)">
<stop stop-color="#FF0000"/>
<stop offset="1" stop-color="white" stop-opacity="0"/>
</radialGradient>
<radialGradient id="paint3_radial" cx="0" cy="0" r="1" gradientUnits="userSpaceOnUse" gradientTransform="translate(293.056 242.718) rotate(-143.937) scale(641.171 654.649)">
<stop stop-color="#7000FF"/>
<stop offset="1" stop-color="white" stop-opacity="0"/>
</radialGradient>
<clipPath id="clip0">
<rect width="1630" height="348" fill="white"/>
</clipPath>
<clipPath id="clip1">
<rect x="14" y="9.86203" width="264" height="264" rx="62.3163" fill="white"/>
</clipPath>
</defs>
</svg>
