<svg xmlns="http://www.w3.org/2000/svg" width="1630" height="348" fill="none" viewBox="0 0 1630 348">
  <g clip-path="url(#clip0)">
    <path style="fill: currentColor;" d="M408.225 253v-72.001h24.953L476.847 253h54.845l-49.647-79.799c23.654-11.437 38.47-35.611 38.47-67.062 0-46.528-31.192-74.08-75.38-74.08h-83.178V253h46.268zm36.91-174.934c16.116 0 28.852 11.697 28.852 28.073 0 16.116-12.476 28.592-26.513 28.592h-39.249V78.066h36.91zM638.56 205.173c-3.639 3.379-11.697 5.978-21.834 5.978-13.257 0-23.914-7.798-28.593-20.275h103.973c.78-4.938 1.04-10.657 1.04-16.115 0-45.488-33.012-79.8-76.94-79.8s-77.2 34.312-77.2 79.54c0 46.787 32.232 79.799 77.98 79.799 31.971 0 59.784-20.015 70.441-49.127H638.56zm-50.427-47.308c4.679-11.957 14.817-19.495 28.073-19.495 13.257 0 23.134 7.278 27.813 19.495h-55.886zm237.824-60.824v14.556c-5.719-8.837-23.394-16.115-40.29-16.115-46.008 0-74.34 31.711-74.34 79.799 0 47.827 28.332 79.539 74.34 79.539 16.896 0 34.311-7.019 40.29-16.376v79.539h46.267V97.041h-46.267zm-68.622 78.24c0-20.535 13.516-33.792 34.571-33.792 20.014 0 34.051 13.257 34.051 33.532 0 19.235-14.297 33.531-34.051 33.531-21.055 0-34.571-13.257-34.571-33.271zm182.622 0v-78.24H893.69v78.24c0 47.827 24.693 79.539 64.463 79.539 14.556 0 30.152-6.759 35.61-16.376V253h46.007V97.041h-46.007v77.98c0 19.495-11.437 33.531-27.033 33.531-16.375 0-26.773-13.257-26.773-33.271zm219.293 29.892c-3.64 3.379-11.7 5.978-21.84 5.978-13.25 0-23.91-7.798-28.59-20.275h103.97c.78-4.938 1.04-10.657 1.04-16.115 0-45.488-33.01-79.8-76.94-79.8-43.92 0-77.2 34.312-77.2 79.54 0 46.787 32.24 79.799 77.98 79.799 31.98 0 59.79-20.015 70.45-49.127h-48.87zm-50.43-47.308c4.68-11.957 14.82-19.495 28.07-19.495 13.26 0 23.14 7.278 27.82 19.495h-55.89zm121.93 40.29c-.26 36.91 31.71 56.405 61.08 56.405 34.83 0 61.09-20.795 61.09-48.088 0-37.17-28.6-45.228-50.95-50.686-13.52-3.119-21.05-5.199-21.05-11.957 0-6.498 4.93-9.878 11.69-9.878 8.84 0 15.86 7.279 15.34 15.856h41.07c.52-32.231-22.62-54.585-56.15-54.585-32.75 0-57.96 17.415-57.96 49.387 0 36.13 29.63 40.809 49.91 47.307 10.91 3.899 21.83 6.758 21.83 15.336 0 5.459-4.68 8.318-13.52 8.578-10.39 0-18.97-8.058-18.71-17.675h-43.67zM1397.8 64.03l-10.92 33.011h-19.49v43.409h19.49v55.885c0 40.809 17.42 56.665 59.27 56.665h12.21v-45.488h-7.79c-11.44 0-17.68-5.199-17.68-13.776V140.45h25.47V97.041h-25.47V64.03h-35.09zm78.54 134.125c-.26 36.91 31.71 56.405 61.08 56.405 34.83 0 61.09-20.795 61.09-48.088 0-37.17-28.6-45.228-50.95-50.686-13.52-3.119-21.05-5.199-21.05-11.957 0-6.498 4.93-9.878 11.69-9.878 8.84 0 15.86 7.279 15.34 15.856h41.07c.52-32.231-22.62-54.585-56.15-54.585-32.75 0-57.96 17.415-57.96 49.387 0 36.13 29.63 40.809 49.9 47.307 10.92 3.899 21.84 6.758 21.84 15.336 0 5.459-4.68 8.318-13.52 8.578-10.39 0-18.97-8.058-18.71-17.675h-43.67z"/>
    <g clip-path="url(#clip1)">
      <rect width="264" height="264" x="14" y="9.862" fill="#fff" rx="62.316"/>
      <path fill="url(#paint0_radial)" d="M5.75 4.5h280.5v274.725H5.75z"/>
      <path fill="url(#paint1_radial)" d="M5.75 4.5h280.5v274.725H5.75z"/>
      <path fill="url(#paint2_radial)" d="M5.75 4.5h280.5v274.725H5.75z"/>
      <path fill="url(#paint3_radial)" d="M5.75 4.5h280.5v274.725H5.75z"/>
      <g filter="url(#filter0_d)">
        <path fill="#fff" d="M162.844 139.177l-71.032-24.156V75.065l114.774 47.007v34.732L91.812 203.81v-39.955l71.032-24.678z"/>
      </g>
    </g>
  </g>
  <defs>
    <radialGradient id="paint0_radial" cx="0" cy="0" r="1" gradientTransform="matrix(550.68778 -506.34435 516.98778 562.26332 15.547 274.068)" gradientUnits="userSpaceOnUse">
      <stop stop-color="#5200FF"/>
      <stop offset="1" stop-color="#7737FF" stop-opacity="0"/>
    </radialGradient>
    <radialGradient id="paint1_radial" cx="0" cy="0" r="1" gradientTransform="matrix(287.71874 289.05963 -295.13573 293.76666 20.29 20.69)" gradientUnits="userSpaceOnUse">
      <stop stop-color="#001AFF"/>
      <stop offset="1" stop-color="#fff" stop-opacity="0"/>
    </radialGradient>
    <radialGradient id="paint2_radial" cx="0" cy="0" r="1" gradientTransform="rotate(133.489 142.714 53.795) scale(600.271 612.889)" gradientUnits="userSpaceOnUse">
      <stop stop-color="red"/>
      <stop offset="1" stop-color="#fff" stop-opacity="0"/>
    </radialGradient>
    <radialGradient id="paint3_radial" cx="0" cy="0" r="1" gradientTransform="rotate(-143.937 186.034 73.66) scale(641.171 654.649)" gradientUnits="userSpaceOnUse">
      <stop stop-color="#7000FF"/>
      <stop offset="1" stop-color="#fff" stop-opacity="0"/>
    </radialGradient>
    <clipPath id="clip0">
      <path fill="#fff" d="M0 0h1630v348H0z"/>
    </clipPath>
    <clipPath id="clip1">
      <rect width="264" height="264" x="14" y="9.862" fill="#fff" rx="62.316"/>
    </clipPath>
    <filter id="filter0_d" width="198.924" height="212.895" x="49.737" y="33.815" color-interpolation-filters="sRGB" filterUnits="userSpaceOnUse">
      <feFlood flood-opacity="0" result="BackgroundImageFix"/>
      <feColorMatrix in="SourceAlpha" values="0 0 0 0 0 0 0 0 0 0 0 0 0 0 0 0 0 0 127 0"/>
      <feOffset dy=".825"/>
      <feGaussianBlur stdDeviation="21.038"/>
      <feColorMatrix values="0 0 0 0 0.377167 0 0 0 0 0 0 0 0 0 0.608333 0 0 0 0.13 0"/>
      <feBlend in2="BackgroundImageFix" result="effect1_dropShadow"/>
      <feBlend in="SourceGraphic" in2="effect1_dropShadow" result="shape"/>
    </filter>
  </defs>
</svg>
